<svg xmlns="http://www.w3.org/2000/svg" viewBox="0 0 512 512" width="512" height="512">
  <rect width="512" height="512" rx="96" fill="#0f172a"/>
  <g transform="translate(256,248)">
    <circle cx="0" cy="0" r="140" fill="none" stroke="#1e293b" stroke-width="6"/>
    <!-- Outer nodes -->
    <circle cx="-112" cy="0" r="12" fill="#6366f1"/>
    <circle cx="112" cy="0" r="12" fill="#6366f1"/>
    <circle cx="0" cy="-112" r="12" fill="#6366f1"/>
    <circle cx="0" cy="112" r="12" fill="#6366f1"/>
    <circle cx="-80" cy="-80" r="9" fill="#818cf8"/>
    <circle cx="80" cy="-80" r="9" fill="#818cf8"/>
    <circle cx="-80" cy="80" r="9" fill="#818cf8"/>
    <circle cx="80" cy="80" r="9" fill="#818cf8"/>
    <!-- Mid nodes -->
    <circle cx="-112" cy="-40" r="5" fill="#4f46e5"/>
    <circle cx="112" cy="-40" r="5" fill="#4f46e5"/>
    <circle cx="-40" cy="-112" r="5" fill="#4f46e5"/>
    <circle cx="40" cy="-112" r="5" fill="#4f46e5"/>
    <!-- Circuit lines -->
    <line x1="-112" y1="0" x2="-80" y2="-80" stroke="#4f46e5" stroke-width="5" stroke-linecap="round"/>
    <line x1="-80" y1="-80" x2="0" y2="-112" stroke="#4f46e5" stroke-width="5" stroke-linecap="round"/>
    <line x1="0" y1="-112" x2="80" y2="-80" stroke="#4f46e5" stroke-width="5" stroke-linecap="round"/>
    <line x1="80" y1="-80" x2="112" y2="0" stroke="#4f46e5" stroke-width="5" stroke-linecap="round"/>
    <line x1="112" y1="0" x2="80" y2="80" stroke="#4f46e5" stroke-width="5" stroke-linecap="round"/>
    <line x1="80" y1="80" x2="0" y2="112" stroke="#4f46e5" stroke-width="5" stroke-linecap="round"/>
    <line x1="0" y1="112" x2="-80" y2="80" stroke="#4f46e5" stroke-width="5" stroke-linecap="round"/>
    <line x1="-80" y1="80" x2="-112" y2="0" stroke="#4f46e5" stroke-width="5" stroke-linecap="round"/>
    <!-- Spokes to center -->
    <line x1="-80" y1="-80" x2="0" y2="0" stroke="#6366f1" stroke-width="3.5" stroke-linecap="round" opacity="0.5"/>
    <line x1="80" y1="-80" x2="0" y2="0" stroke="#6366f1" stroke-width="3.5" stroke-linecap="round" opacity="0.5"/>
    <line x1="-80" y1="80" x2="0" y2="0" stroke="#6366f1" stroke-width="3.5" stroke-linecap="round" opacity="0.5"/>
    <line x1="80" y1="80" x2="0" y2="0" stroke="#6366f1" stroke-width="3.5" stroke-linecap="round" opacity="0.5"/>
    <line x1="-112" y1="0" x2="0" y2="0" stroke="#6366f1" stroke-width="3" stroke-linecap="round" opacity="0.3"/>
    <line x1="112" y1="0" x2="0" y2="0" stroke="#6366f1" stroke-width="3" stroke-linecap="round" opacity="0.3"/>
    <!-- Center -->
    <circle cx="0" cy="0" r="28" fill="#6366f1"/>
    <circle cx="0" cy="0" r="14" fill="#a5b4fc"/>
    <circle cx="0" cy="0" r="6" fill="#ffffff"/>
  </g>
  <text x="256" y="446" text-anchor="middle" font-family="system-ui, sans-serif" font-size="28" font-weight="700" fill="#6366f1" letter-spacing="10" opacity="0.8">AXIOM</text>
</svg>
